<?xml version="1.0" encoding="UTF-8" standalone="no"?>
<!DOCTYPE svg PUBLIC "-//W3C//DTD SVG 1.1//EN" "http://www.w3.org/Graphics/SVG/1.1/DTD/svg11.dtd">
<svg xmlns="http://www.w3.org/2000/svg" version="1.1" viewBox="0 0 415 137">
<path fill="#3491f0" d="
  M 53.00 124.44
  C 41.81 114.11 31.88 103.72 21.74 93.27
  C -9.18 61.37 17.01 8.20 61.21 14.89
  C 99.49 20.67 113.29 66.38 86.47 93.72
  Q 71.49 108.99 55.90 124.39
  Q 54.47 125.80 53.00 124.44
  Z
  M 77.44 57.55
  L 89.41 69.92
  A 1.08 1.05 26.3 0 1 89.71 70.77
  Q 89.32 74.30 89.59 77.00
  Q 89.85 79.61 90.88 77.19
  Q 96.12 64.92 93.74 52.80
  C 87.69 22.04 50.29 9.74 27.26 30.90
  C 14.24 42.86 10.90 60.76 17.73 77.27
  Q 18.14 78.25 18.67 77.86
  A 1.14 0.72 79.6 0 0 19.01 77.01
  L 18.98 70.74
  A 1.20 1.14 -24.1 0 1 19.33 69.89
  L 32.15 56.81
  A 0.72 0.71 -45.3 0 1 33.17 56.80
  L 40.31 63.81
  Q 41.00 64.49 41.01 63.51
  L 41.03 55.55
  A 1.28 1.10 -25.6 0 1 41.40 54.71
  L 53.86 42.09
  A 0.45 0.43 -45.5 0 1 54.49 42.07
  L 67.56 55.02
  A 1.27 1.26 -68.1 0 1 67.93 55.89
  L 68.00 63.31
  Q 68.01 64.24 68.65 63.62
  L 74.95 57.55
  A 1.79 1.72 -44.0 0 1 77.44 57.55
  Z
  M 55.0156 50.7185
  A 0.72 0.72 0.0 0 0 53.9974 50.7096
  L 48.4483 56.1627
  A 0.72 0.72 0.0 0 0 48.4394 57.1809
  L 53.8644 62.7015
  A 0.72 0.72 0.0 0 0 54.8826 62.7104
  L 60.4317 57.2573
  A 0.72 0.72 0.0 0 0 60.4406 56.2391
  L 55.0156 50.7185
  Z
  M 32.90 77.51
  C 34.64 75.99 36.95 73.68 38.76 71.38
  A 0.57 0.55 39.9 0 0 38.68 70.63
  L 32.93 65.23
  A 0.53 0.47 -45.4 0 0 32.24 65.27
  L 27.30 70.09
  A 1.56 1.45 -43.8 0 0 27.18 72.20
  L 32.18 77.46
  A 0.53 0.51 47.8 0 0 32.90 77.51
  Z
  M 50.64 113.28
  Q 51.24 113.65 51.24 112.95
  Q 51.25 92.19 51.25 71.42
  C 51.25 68.52 49.72 66.81 47.59 65.28
  Q 46.70 64.63 46.71 65.74
  Q 46.88 85.88 46.63 106.04
  C 46.59 109.62 47.76 111.52 50.64 113.28
  Z
  M 59.55 67.01
  L 57.66 68.81
  A 1.26 1.08 71.4 0 0 57.31 69.68
  L 57.43 113.04
  A 0.31 0.31 -14.6 0 0 57.88 113.31
  C 60.63 111.81 62.00 109.90 62.00 106.54
  Q 62.01 86.21 61.99 65.79
  A 0.51 0.46 87.4 0 0 61.48 65.28
  Q 60.56 65.37 60.12 66.22
  Q 59.88 66.69 59.55 67.01
  Z
  M 81.44 70.42
  L 76.37 65.24
  A 0.52 0.50 45.0 0 0 75.64 65.23
  L 69.98 71.10
  A 0.55 0.50 45.0 0 0 70.01 71.83
  L 75.69 77.66
  A 0.48 0.48 -45.8 0 0 76.38 77.65
  L 81.38 72.51
  A 1.54 1.45 -45.2 0 0 81.44 70.42
  Z
  M 35.98 85.27
  C 35.38 90.98 34.29 99.25 39.40 101.88
  A 0.80 0.78 13.7 0 0 40.57 101.19
  L 40.31 80.25
  A 0.31 0.30 -14.7 0 0 39.85 79.99
  C 37.59 81.24 36.27 82.50 35.98 85.27
  Z
  M 29.91 88.83
  Q 30.95 83.21 26.57 80.32
  Q 25.05 79.31 25.02 81.13
  C 24.95 86.22 24.24 88.52 28.87 91.77
  A 0.55 0.52 36.0 0 0 29.61 91.68
  Q 30.24 90.84 29.97 89.79
  Q 29.83 89.24 29.91 88.83
  Z
  M 69.84 80.53
  Q 68.01 78.69 68.01 81.36
  L 68.00 101.32
  Q 68.00 102.77 69.24 102.01
  C 71.26 100.77 72.74 99.47 72.85 96.85
  Q 73.12 90.55 72.99 84.25
  A 1.41 0.95 -75.9 0 0 72.67 83.36
  L 69.84 80.53
  Z
  M 83.38 80.29
  C 81.48 80.23 80.81 82.14 79.44 83.25
  A 1.14 0.93 -23.2 0 0 79.02 84.05
  L 79.12 91.38
  A 0.31 0.30 -16.2 0 0 79.59 91.63
  C 84.38 88.86 84.20 85.84 83.91 80.84
  A 0.58 0.54 88.8 0 0 83.38 80.29
  Z"
/>
<path fill="#3491f0" d="
  M 167.56 69.44
  C 172.82 72.72 166.53 81.91 163.76 84.48
  C 157.76 90.06 148.61 91.09 140.67 89.09
  C 123.77 84.84 120.17 63.75 126.58 49.81
  C 131.79 38.47 146.34 34.38 157.70 38.88
  C 162.46 40.77 173.95 49.95 167.78 55.80
  C 164.85 58.58 161.96 56.36 160.30 53.41
  C 158.04 49.40 155.51 46.16 150.84 45.19
  C 131.22 41.11 127.62 78.58 145.67 81.77
  C 152.08 82.91 157.57 79.71 160.01 73.81
  C 161.59 69.98 162.98 66.58 167.56 69.44
  Z"
/>
<ellipse fill="#3491f0" cx="0.00" cy="0.00" transform="translate(182.78,41.50) rotate(-0.8)" rx="4.81" ry="4.52"/>
<rect fill="#3491f0" x="263.03" y="37.04" width="10.44" height="52.92" rx="5.10"/>
<path fill="#3491f0" d="
  M 328.93 59.05
  C 326.37 59.00 322.43 59.12 322.45 55.49
  C 322.46 52.26 325.98 51.59 328.51 52.07
  A 0.94 0.93 0.7 0 0 329.61 51.00
  Q 328.74 45.83 331.11 41.14
  Q 332.14 39.10 334.28 38.30
  C 337.60 37.06 351.55 34.89 350.17 42.18
  Q 349.51 45.61 346.75 44.53
  Q 344.39 43.61 341.54 44.24
  Q 339.65 44.66 339.55 46.22
  L 339.21 51.54
  A 0.49 0.42 -2.5 0 0 339.76 51.97
  Q 343.20 51.51 345.99 53.23
  A 1.52 1.36 9.1 0 1 346.59 53.97
  C 348.23 58.82 342.98 59.42 339.86 58.99
  A 0.65 0.64 4.8 0 0 339.12 59.61
  C 339.04 64.71 340.15 85.54 337.71 88.38
  C 333.79 92.93 329.47 88.31 329.49 83.74
  Q 329.55 71.65 329.44 59.56
  A 0.52 0.51 0.6 0 0 328.93 59.05
  Z"
/>
<path fill="#3491f0" d="
  M 209.29 59.57
  C 209.14 63.35 208.15 79.86 210.11 82.19
  C 212.13 84.59 220.63 79.69 219.77 85.94
  Q 219.50 87.96 217.31 88.78
  C 209.83 91.56 200.28 90.84 199.78 80.91
  Q 199.24 70.23 199.55 59.53
  A 0.46 0.46 -0.6 0 0 199.07 59.06
  Q 193.22 59.34 194.34 54.03
  A 1.49 1.39 78.2 0 1 194.83 53.22
  Q 196.73 51.70 198.97 51.97
  A 0.48 0.48 -86.3 0 0 199.51 51.49
  C 199.49 48.16 198.94 43.14 200.30 40.45
  C 201.99 37.12 206.69 37.20 208.35 40.55
  C 209.73 43.35 208.92 47.64 209.13 51.39
  A 0.55 0.54 -0.6 0 0 209.66 51.90
  C 212.70 52.00 218.64 51.95 216.35 57.20
  A 1.44 1.38 -2.5 0 1 215.70 57.88
  Q 212.93 59.32 209.81 59.11
  A 0.48 0.48 3.4 0 0 209.29 59.57
  Z"
/>
<rect fill="#3491f0" x="178.02" y="51.04" width="9.46" height="38.92" rx="4.60"/>
<path fill="#3491f0" d="
  M 237.15 78.95
  Q 237.55 80.16 237.96 78.96
  Q 241.76 67.81 245.71 56.74
  Q 246.94 53.29 248.60 51.45
  A 1.17 1.17 20.3 0 1 249.45 51.06
  Q 256.80 50.95 254.32 58.04
  Q 251.88 65.02 240.01 95.25
  C 236.65 103.81 229.19 105.52 220.93 103.17
  Q 219.17 102.67 218.82 100.88
  C 217.43 93.77 226.32 98.54 229.07 96.06
  Q 231.31 94.05 232.45 89.22
  A 1.62 1.49 42.6 0 0 232.37 88.28
  Q 226.26 72.89 220.26 57.49
  C 218.02 51.75 226.32 47.42 229.15 55.45
  Q 233.34 67.36 237.15 78.95
  Z"
/>
<path fill="#3491f0" d="
  M 294.15 56.32
  C 301.85 48.19 318.33 48.79 318.57 62.76
  Q 318.77 74.34 318.72 85.95
  Q 318.72 87.89 317.10 88.96
  C 313.24 91.54 309.63 89.20 309.47 84.87
  Q 309.15 76.23 309.17 67.59
  C 309.18 63.37 308.87 59.04 304.38 58.16
  C 291.34 55.62 294.13 77.79 294.32 84.66
  Q 294.39 87.09 292.60 88.74
  Q 288.80 92.23 285.76 88.12
  Q 284.53 86.45 284.52 84.38
  Q 284.45 70.16 284.58 56.82
  Q 284.60 54.49 285.65 52.47
  A 1.47 1.36 0.9 0 1 286.35 51.84
  Q 292.86 49.09 293.76 56.19
  Q 293.82 56.67 294.15 56.32
  Z"
/>
<path fill="#3491f0" d="
  M 386.5881 72.4858
  A 17.15 17.15 0.0 0 1 369.5884 89.7848
  L 366.2686 89.8138
  A 17.15 17.15 0.0 0 1 348.9696 72.8141
  L 348.9319 68.4942
  A 17.15 17.15 0.0 0 1 365.9316 51.1952
  L 369.2514 51.1662
  A 17.15 17.15 0.0 0 1 386.5504 68.1659
  L 386.5881 72.4858
  Z
  M 367.8022 83.2300
  A 12.72 9.64 89.9 0 0 377.4200 70.4932
  A 12.72 9.64 89.9 0 0 367.7578 57.7900
  A 12.72 9.64 89.9 0 0 358.1400 70.5268
  A 12.72 9.64 89.9 0 0 367.8022 83.2300
  Z"
/>
</svg>
